<?xml version="1.0" encoding="UTF-8"?><svg xmlns="http://www.w3.org/2000/svg" height="2139.9pt" version="1.1" viewBox="0 0 3605.74 2139.89" width="3605.7pt">
 <g fill-rule="evenodd" id="change1_1">
  <path d="m1460.9 2037.9c334 41.3 695 35.5 1009.5-7.1 134-18.2 274.7-47.9 372.2-100.2 9-4.8 30.5-9.3 28.7-25.1-548.7 90.5-1292.5 87.8-1850.6 17.9 103 58.1 276 94.2 440.2 114.5zm1295.8-551.2c33.2-10.1 89.9-16.7 89.5 25.1-0.4 48.4-139 71.3-186.1 82.3-365.4 84.7-832 94-1227.8 35.8-71.6-10.6-146.1-23.8-225.5-43-44.8-10.8-190.9-37.5-186.1-82.3 3.6-34 59.4-27.5 89.5-21.5 105 21.1 199.4 60.9 307.8 68 2.2 0.2 4.2 0.6 3.6 3.6 3.8 0.2 9.1-1.7 3.6-3.6-110.5-55.9-189.9-121.8-275.7-207.6-20.8-20.8-60.1-73.8-85.9-78.7-31.2-6.1-82.15 12.1-118.1 17.9-212.29 34.1-374.62 66-544.09 146.7-56.73 27-146 70.2-143.18 132.5 2.28 50.9 77.47 92.1 128.85 118.1 169.42 85.8 380.38 126.8 583.47 157.5 577.35 87.3 1273.2 86.7 1847 0 197.6-29.9 421.1-75.3 583.4-157.5 54.8-27.7 128.9-70.2 128.9-121.7 0-56.2-82.3-101.9-128.9-125.3-180.5-90.8-394.3-118.6-608.5-161.1-104.3 111.6-219.3 212.6-361.5 286.4 118.4-14 223.2-40.5 325.7-71.6zm-1589.3-1048.8c440.2 120.1 1119.1 126.28 1553.5-3.58-431-124.11-1127.8-128.86-1553.5 3.58zm755.3 161.07c-337.3 0-697.7-29.3-923.52-143.17-32.79-16.55-59.85-42.56-89.48-57.27-39.67-19.71-100.2-33.62-157.5-50.12-308.11-88.75-671.92 81.49-676.54 365.11-4.219 260.36 295.72 414.28 547.67 397.28 145.36-9.7 275.66-72.5 372.28-121.66 93.59 217.16 246.19 371.16 454.59 483.26 96.9 52.1 217.1 100.9 354.4 114.5 138.3 13.7 298.9 4.9 429.5-35.8 231-71.8 415.3-208.2 544.1-397.3 127.6-187.35 223.5-430.37 179-733.8-237.8 141.59-630.8 178.97-1034.5 178.97zm1023.8-307.83c-5.4-54.09-146.5-100.75-214.8-121.71-262.9-80.571-596-108.64-930.7-93.067-244.2 11.36-503.8 36.047-701.6 110.97-51.9 19.65-158.38 62.46-157.49 114.54 0.55 32.15 71.69 88.07 107.39 89.49 21.9 0.88 60.9-22.75 93.1-32.22 489.2-144.18 1249.6-113.31 1700.2 32.22 37.8-25.69 109.8-40.79 103.9-100.22zm-103.9 912.76c236.6 49.5 503.6 82.8 669.4 204 51.8 38 116.3 101.3 85.9 196.9-30.8 96.8-164.4 153.4-264.9 189.7-122.1 44.2-240.6 71.4-361.5 93.1-4.5 16.7-7.7 38.9-17.9 53.7-65.4 95.1-276.5 134.1-429.5 157.5-344.6 52.7-759.4 54.3-1109.7 7.1-204.7-27.5-435.21-58.1-511.86-204-212.97-39.9-424.18-71.9-590.61-171.8-69.03-41.4-156.77-107.7-121.71-218.3 37.3-117.8 228.31-181.3 350.79-218.4 159.25-48.2 312.07-76.4 472.49-96.6-6.1-38.1-46.35-73-60.86-114.6-204.74 153.6-589.18 116.3-766-17.9-128.25-97.32-242.03-294.97-157.51-501.13 101.58-247.75 479.24-399.4 823.29-264.88 47.69-151.2 255.48-205.69 425.98-239.83 169.6-33.937 343.7-45.702 515.4-53.687 331.6-15.421 672.7 5.0864 941.5 82.325 115 33.082 227 81.142 264.8 175.39 57 141.95 51.8 359.95 17.9 529.78-34.1 171.28-98.2 295.53-175.4 411.63" fill="inherit"/>
  <path d="m340.56 627.61c-51.57 54.62-51.06 132.06 0 186.14 99.37 105.23 385.57 128.1 519.01 39.37-16.66-87.13-35.5-172.09-32.2-279.2-141.25-74.51-394.49-44.09-486.81 53.69zm558.4-78.76c-2.12 126.22 19.02 229.19 50.1 322.17-154.88 176.88-615.91 136.88-708.74-68.02-22.3-49.21-23.88-111.95 0-164.66 82.73-182.56 486.95-246.8 658.64-89.49" fill="inherit"/>
 </g>
</svg>